<mxfile host="app.diagrams.net" agent="Mozilla/5.0 (X11; Linux x86_64) AppleWebKit/537.36 (KHTML, like Gecko) Chrome/129.0.0.0 Safari/537.36" version="24.7.17">
  <diagram name="Page-1" id="gc3eP-ByzcQ972dsxTkT">
    <mxGraphModel dx="1434" dy="778" grid="1" gridSize="10" guides="1" tooltips="1" connect="1" arrows="1" fold="1" page="1" pageScale="1" pageWidth="850" pageHeight="1100" math="0" shadow="0">
      <root>
        <mxCell id="0" />
        <mxCell id="1" parent="0" />
        <mxCell id="PDRMPwSOJXq__s6TUhaR-11" value="Kuberentes Cluster" style="rounded=0;whiteSpace=wrap;html=1;glass=1;align=center;horizontal=1;verticalAlign=top;" vertex="1" parent="1">
          <mxGeometry x="10" y="30" width="800" height="540" as="geometry" />
        </mxCell>
        <mxCell id="PDRMPwSOJXq__s6TUhaR-12" value="Production Namespace" style="rounded=0;whiteSpace=wrap;html=1;verticalAlign=top;" vertex="1" parent="1">
          <mxGeometry x="50" y="60" width="360" height="470" as="geometry" />
        </mxCell>
        <mxCell id="PDRMPwSOJXq__s6TUhaR-17" value="Django Pods" style="group;verticalAlign=bottom;labelPosition=center;verticalLabelPosition=top;align=center;labelBorderColor=none;" vertex="1" connectable="0" parent="1">
          <mxGeometry x="102" y="130" width="70" height="70" as="geometry" />
        </mxCell>
        <mxCell id="PDRMPwSOJXq__s6TUhaR-15" value="&lt;div&gt;&lt;br&gt;&lt;/div&gt;" style="shape=image;html=1;verticalAlign=top;verticalLabelPosition=bottom;labelBackgroundColor=#ffffff;imageAspect=0;aspect=fixed;image=https://cdn2.iconfinder.com/data/icons/boxicons-logos/24/bxl-django-128.png;imageBorder=default;" vertex="1" parent="PDRMPwSOJXq__s6TUhaR-17">
          <mxGeometry x="10" y="10" width="50" height="50" as="geometry" />
        </mxCell>
        <mxCell id="PDRMPwSOJXq__s6TUhaR-16" value="" style="shape=image;html=1;verticalAlign=top;verticalLabelPosition=bottom;labelBackgroundColor=#ffffff;imageAspect=0;aspect=fixed;image=https://cdn2.iconfinder.com/data/icons/boxicons-logos/24/bxl-django-128.png;imageBorder=default;" vertex="1" parent="PDRMPwSOJXq__s6TUhaR-17">
          <mxGeometry x="20" width="50" height="50" as="geometry" />
        </mxCell>
        <mxCell id="PDRMPwSOJXq__s6TUhaR-13" value="&lt;div&gt;&lt;br&gt;&lt;/div&gt;" style="shape=image;html=1;verticalAlign=top;verticalLabelPosition=bottom;labelBackgroundColor=#ffffff;imageAspect=0;aspect=fixed;image=https://cdn2.iconfinder.com/data/icons/boxicons-logos/24/bxl-django-128.png;imageBorder=default;imageBackground=default;" vertex="1" parent="PDRMPwSOJXq__s6TUhaR-17">
          <mxGeometry y="20" width="50" height="50" as="geometry" />
        </mxCell>
        <mxCell id="PDRMPwSOJXq__s6TUhaR-18" value="PostgreSQL&lt;div&gt;Database&lt;/div&gt;" style="image;aspect=fixed;html=1;points=[];align=center;fontSize=12;image=img/lib/azure2/databases/Azure_Database_PostgreSQL_Server.svg;" vertex="1" parent="1">
          <mxGeometry x="102" y="360" width="48" height="64" as="geometry" />
        </mxCell>
        <mxCell id="PDRMPwSOJXq__s6TUhaR-19" value="RabbitMQ&lt;div&gt;Server&lt;/div&gt;" style="image;sketch=0;aspect=fixed;html=1;points=[];align=center;fontSize=12;image=img/lib/mscae/Queues_Storage.svg;" vertex="1" parent="1">
          <mxGeometry x="195.9" y="364" width="68.19" height="60" as="geometry" />
        </mxCell>
        <mxCell id="PDRMPwSOJXq__s6TUhaR-20" value="Redis&lt;div&gt;Server&lt;/div&gt;" style="image;sketch=0;aspect=fixed;html=1;points=[];align=center;fontSize=12;image=img/lib/mscae/Cache_Redis_Product.svg;" vertex="1" parent="1">
          <mxGeometry x="310" y="365.2" width="70" height="58.8" as="geometry" />
        </mxCell>
        <mxCell id="PDRMPwSOJXq__s6TUhaR-21" value="Celery Worker&#xa;Pods" style="group;verticalAlign=bottom;labelPosition=center;verticalLabelPosition=top;align=center;" vertex="1" connectable="0" parent="1">
          <mxGeometry x="310" y="130" width="70" height="70" as="geometry" />
        </mxCell>
        <mxCell id="PDRMPwSOJXq__s6TUhaR-22" value="&lt;div&gt;&lt;br&gt;&lt;/div&gt;" style="shape=image;html=1;verticalAlign=top;verticalLabelPosition=bottom;labelBackgroundColor=#ffffff;imageAspect=0;aspect=fixed;image=https://cdn2.iconfinder.com/data/icons/boxicons-logos/24/bxl-django-128.png;imageBorder=default;" vertex="1" parent="PDRMPwSOJXq__s6TUhaR-21">
          <mxGeometry x="10" y="10" width="50" height="50" as="geometry" />
        </mxCell>
        <mxCell id="PDRMPwSOJXq__s6TUhaR-23" value="" style="shape=image;html=1;verticalAlign=top;verticalLabelPosition=bottom;labelBackgroundColor=#ffffff;imageAspect=0;aspect=fixed;image=https://cdn2.iconfinder.com/data/icons/boxicons-logos/24/bxl-django-128.png;imageBorder=default;" vertex="1" parent="PDRMPwSOJXq__s6TUhaR-21">
          <mxGeometry x="20" width="50" height="50" as="geometry" />
        </mxCell>
        <mxCell id="PDRMPwSOJXq__s6TUhaR-24" value="&lt;div&gt;&lt;br&gt;&lt;/div&gt;" style="shape=image;html=1;verticalAlign=top;verticalLabelPosition=bottom;labelBackgroundColor=#ffffff;imageAspect=0;aspect=fixed;image=https://cdn2.iconfinder.com/data/icons/boxicons-logos/24/bxl-django-128.png;imageBorder=default;imageBackground=default;" vertex="1" parent="PDRMPwSOJXq__s6TUhaR-21">
          <mxGeometry y="20" width="50" height="50" as="geometry" />
        </mxCell>
        <mxCell id="PDRMPwSOJXq__s6TUhaR-35" value="" style="endArrow=classic;startArrow=classic;html=1;rounded=0;edgeStyle=orthogonalEdgeStyle;" edge="1" parent="1" source="PDRMPwSOJXq__s6TUhaR-18" target="PDRMPwSOJXq__s6TUhaR-13">
          <mxGeometry width="50" height="50" relative="1" as="geometry">
            <mxPoint x="400" y="310" as="sourcePoint" />
            <mxPoint x="450" y="260" as="targetPoint" />
            <Array as="points">
              <mxPoint x="110" y="240" />
              <mxPoint x="110" y="240" />
            </Array>
          </mxGeometry>
        </mxCell>
        <mxCell id="PDRMPwSOJXq__s6TUhaR-36" value="" style="endArrow=none;startArrow=classic;html=1;rounded=0;endFill=0;edgeStyle=orthogonalEdgeStyle;" edge="1" parent="1" source="PDRMPwSOJXq__s6TUhaR-19" target="PDRMPwSOJXq__s6TUhaR-13">
          <mxGeometry width="50" height="50" relative="1" as="geometry">
            <mxPoint x="400" y="310" as="sourcePoint" />
            <mxPoint x="450" y="260" as="targetPoint" />
            <Array as="points">
              <mxPoint x="230" y="330" />
              <mxPoint x="130" y="330" />
            </Array>
          </mxGeometry>
        </mxCell>
        <mxCell id="PDRMPwSOJXq__s6TUhaR-39" value="Task Scheduling" style="edgeLabel;html=1;align=center;verticalAlign=middle;resizable=0;points=[];" vertex="1" connectable="0" parent="PDRMPwSOJXq__s6TUhaR-36">
          <mxGeometry x="-0.2205" relative="1" as="geometry">
            <mxPoint x="19" as="offset" />
          </mxGeometry>
        </mxCell>
        <mxCell id="PDRMPwSOJXq__s6TUhaR-37" value="" style="endArrow=classic;startArrow=classic;html=1;rounded=0;edgeStyle=orthogonalEdgeStyle;" edge="1" parent="1" source="PDRMPwSOJXq__s6TUhaR-20" target="PDRMPwSOJXq__s6TUhaR-13">
          <mxGeometry width="50" height="50" relative="1" as="geometry">
            <mxPoint x="400" y="310" as="sourcePoint" />
            <mxPoint x="450" y="260" as="targetPoint" />
            <Array as="points">
              <mxPoint x="345" y="280" />
              <mxPoint x="140" y="280" />
            </Array>
          </mxGeometry>
        </mxCell>
        <mxCell id="PDRMPwSOJXq__s6TUhaR-38" value="Caching" style="edgeLabel;html=1;align=center;verticalAlign=middle;resizable=0;points=[];" vertex="1" connectable="0" parent="PDRMPwSOJXq__s6TUhaR-37">
          <mxGeometry x="-0.1858" relative="1" as="geometry">
            <mxPoint x="-59" as="offset" />
          </mxGeometry>
        </mxCell>
        <mxCell id="PDRMPwSOJXq__s6TUhaR-40" value="" style="endArrow=classic;startArrow=none;html=1;rounded=0;edgeStyle=elbowEdgeStyle;startFill=0;" edge="1" parent="1" source="PDRMPwSOJXq__s6TUhaR-19" target="PDRMPwSOJXq__s6TUhaR-24">
          <mxGeometry width="50" height="50" relative="1" as="geometry">
            <mxPoint x="400" y="310" as="sourcePoint" />
            <mxPoint x="450" y="260" as="targetPoint" />
          </mxGeometry>
        </mxCell>
        <mxCell id="PDRMPwSOJXq__s6TUhaR-43" value="Task Retrieval" style="edgeLabel;html=1;align=center;verticalAlign=middle;resizable=0;points=[];" vertex="1" connectable="0" parent="PDRMPwSOJXq__s6TUhaR-40">
          <mxGeometry x="0.3734" relative="1" as="geometry">
            <mxPoint as="offset" />
          </mxGeometry>
        </mxCell>
        <mxCell id="PDRMPwSOJXq__s6TUhaR-41" value="" style="endArrow=classic;startArrow=classic;html=1;rounded=0;edgeStyle=elbowEdgeStyle;" edge="1" parent="1" source="PDRMPwSOJXq__s6TUhaR-20" target="PDRMPwSOJXq__s6TUhaR-24">
          <mxGeometry width="50" height="50" relative="1" as="geometry">
            <mxPoint x="350" y="280" as="sourcePoint" />
            <mxPoint x="400" y="230" as="targetPoint" />
          </mxGeometry>
        </mxCell>
        <mxCell id="PDRMPwSOJXq__s6TUhaR-42" value="Caching" style="edgeLabel;html=1;align=center;verticalAlign=middle;resizable=0;points=[];" vertex="1" connectable="0" parent="PDRMPwSOJXq__s6TUhaR-41">
          <mxGeometry x="0.322" y="1" relative="1" as="geometry">
            <mxPoint as="offset" />
          </mxGeometry>
        </mxCell>
        <mxCell id="PDRMPwSOJXq__s6TUhaR-44" value="" style="endArrow=classic;startArrow=classic;html=1;rounded=0;edgeStyle=orthogonalEdgeStyle;elbow=vertical;" edge="1" parent="1" source="PDRMPwSOJXq__s6TUhaR-18" target="PDRMPwSOJXq__s6TUhaR-24">
          <mxGeometry width="50" height="50" relative="1" as="geometry">
            <mxPoint x="400" y="310" as="sourcePoint" />
            <mxPoint x="450" y="260" as="targetPoint" />
            <Array as="points">
              <mxPoint x="126" y="490" />
              <mxPoint x="390" y="490" />
              <mxPoint x="390" y="200" />
            </Array>
          </mxGeometry>
        </mxCell>
        <mxCell id="PDRMPwSOJXq__s6TUhaR-47" value="Monitoring&lt;span style=&quot;background-color: initial;&quot;&gt;&amp;nbsp;Namespace&lt;/span&gt;&lt;div&gt;&lt;div&gt;&lt;br&gt;&lt;/div&gt;&lt;/div&gt;" style="rounded=0;whiteSpace=wrap;html=1;labelPosition=center;verticalLabelPosition=middle;align=center;verticalAlign=top;" vertex="1" parent="1">
          <mxGeometry x="425" y="60" width="355" height="220" as="geometry" />
        </mxCell>
        <mxCell id="PDRMPwSOJXq__s6TUhaR-48" value="Prometheus&lt;div&gt;Server&lt;/div&gt;" style="sketch=0;points=[[0,0,0],[0.25,0,0],[0.5,0,0],[0.75,0,0],[1,0,0],[0,1,0],[0.25,1,0],[0.5,1,0],[0.75,1,0],[1,1,0],[0,0.25,0],[0,0.5,0],[0,0.75,0],[1,0.25,0],[1,0.5,0],[1,0.75,0]];points=[[0,0,0],[0.25,0,0],[0.5,0,0],[0.75,0,0],[1,0,0],[0,1,0],[0.25,1,0],[0.5,1,0],[0.75,1,0],[1,1,0],[0,0.25,0],[0,0.5,0],[0,0.75,0],[1,0.25,0],[1,0.5,0],[1,0.75,0]];outlineConnect=0;fontColor=#232F3E;fillColor=#E7157B;strokeColor=#ffffff;dashed=0;verticalLabelPosition=bottom;verticalAlign=top;align=center;html=1;fontSize=12;fontStyle=0;aspect=fixed;shape=mxgraph.aws4.resourceIcon;resIcon=mxgraph.aws4.managed_service_for_prometheus;" vertex="1" parent="1">
          <mxGeometry x="470" y="132" width="78" height="78" as="geometry" />
        </mxCell>
        <mxCell id="PDRMPwSOJXq__s6TUhaR-49" value="Grafana&lt;div&gt;Server&lt;/div&gt;" style="image;aspect=fixed;html=1;points=[];align=center;fontSize=12;image=img/lib/azure2/other/Grafana.svg;" vertex="1" parent="1">
          <mxGeometry x="630" y="131" width="101.74" height="79" as="geometry" />
        </mxCell>
        <mxCell id="PDRMPwSOJXq__s6TUhaR-50" value="kube-system Namespace" style="rounded=0;whiteSpace=wrap;html=1;verticalAlign=top;" vertex="1" parent="1">
          <mxGeometry x="425" y="300" width="355" height="230" as="geometry" />
        </mxCell>
        <mxCell id="PDRMPwSOJXq__s6TUhaR-53" value="Nginx Load&lt;div&gt;Balancer&lt;/div&gt;" style="sketch=0;outlineConnect=0;fontColor=#232F3E;gradientColor=none;fillColor=#7AA116;strokeColor=none;dashed=0;verticalLabelPosition=bottom;verticalAlign=top;align=center;html=1;fontSize=12;fontStyle=0;aspect=fixed;pointerEvents=1;shape=mxgraph.aws4.http_protocol;" vertex="1" parent="1">
          <mxGeometry x="550" y="380" width="67" height="67" as="geometry" />
        </mxCell>
        <mxCell id="PDRMPwSOJXq__s6TUhaR-54" value="" style="endArrow=classic;startArrow=classic;html=1;rounded=0;edgeStyle=orthogonalEdgeStyle;" edge="1" parent="1" source="PDRMPwSOJXq__s6TUhaR-53" target="PDRMPwSOJXq__s6TUhaR-13">
          <mxGeometry width="50" height="50" relative="1" as="geometry">
            <mxPoint x="400" y="310" as="sourcePoint" />
            <mxPoint x="450" y="260" as="targetPoint" />
            <Array as="points">
              <mxPoint x="504" y="510" />
              <mxPoint x="70" y="510" />
              <mxPoint x="70" y="175" />
            </Array>
          </mxGeometry>
        </mxCell>
        <mxCell id="PDRMPwSOJXq__s6TUhaR-55" value="" style="endArrow=classic;startArrow=classic;html=1;rounded=0;edgeStyle=elbowEdgeStyle;elbow=vertical;" edge="1" parent="1" source="PDRMPwSOJXq__s6TUhaR-53" target="PDRMPwSOJXq__s6TUhaR-49">
          <mxGeometry width="50" height="50" relative="1" as="geometry">
            <mxPoint x="400" y="310" as="sourcePoint" />
            <mxPoint x="450" y="260" as="targetPoint" />
            <Array as="points">
              <mxPoint x="620" y="260" />
            </Array>
          </mxGeometry>
        </mxCell>
        <mxCell id="PDRMPwSOJXq__s6TUhaR-56" value="Clients" style="rounded=0;whiteSpace=wrap;html=1;" vertex="1" parent="1">
          <mxGeometry x="523.5" y="590" width="120" height="60" as="geometry" />
        </mxCell>
        <mxCell id="PDRMPwSOJXq__s6TUhaR-57" value="" style="endArrow=classic;startArrow=classic;html=1;rounded=0;" edge="1" parent="1" source="PDRMPwSOJXq__s6TUhaR-56" target="PDRMPwSOJXq__s6TUhaR-53">
          <mxGeometry width="50" height="50" relative="1" as="geometry">
            <mxPoint x="400" y="550" as="sourcePoint" />
            <mxPoint x="450" y="500" as="targetPoint" />
          </mxGeometry>
        </mxCell>
        <mxCell id="PDRMPwSOJXq__s6TUhaR-58" value="External Services" style="rounded=0;whiteSpace=wrap;html=1;verticalAlign=top;" vertex="1" parent="1">
          <mxGeometry x="10" y="590" width="400" height="310" as="geometry" />
        </mxCell>
        <mxCell id="PDRMPwSOJXq__s6TUhaR-59" value="Snyk Vulnerability&lt;div&gt;Scanner&lt;/div&gt;" style="verticalLabelPosition=bottom;verticalAlign=top;html=1;shape=mxgraph.flowchart.or;" vertex="1" parent="1">
          <mxGeometry x="42" y="640" width="70" height="70" as="geometry" />
        </mxCell>
        <mxCell id="PDRMPwSOJXq__s6TUhaR-60" value="Sentry&lt;div&gt;Error Monitoring&lt;/div&gt;" style="verticalLabelPosition=bottom;verticalAlign=top;html=1;shape=mxgraph.flowchart.or;" vertex="1" parent="1">
          <mxGeometry x="172" y="640" width="70" height="70" as="geometry" />
        </mxCell>
        <mxCell id="PDRMPwSOJXq__s6TUhaR-61" value="SonarCloud" style="verticalLabelPosition=bottom;verticalAlign=top;html=1;shape=mxgraph.flowchart.or;" vertex="1" parent="1">
          <mxGeometry x="300" y="640" width="70" height="70" as="geometry" />
        </mxCell>
        <mxCell id="PDRMPwSOJXq__s6TUhaR-62" value="" style="endArrow=classic;startArrow=classic;html=1;rounded=0;" edge="1" parent="1" source="PDRMPwSOJXq__s6TUhaR-48" target="PDRMPwSOJXq__s6TUhaR-49">
          <mxGeometry width="50" height="50" relative="1" as="geometry">
            <mxPoint x="400" y="310" as="sourcePoint" />
            <mxPoint x="450" y="260" as="targetPoint" />
          </mxGeometry>
        </mxCell>
        <mxCell id="PDRMPwSOJXq__s6TUhaR-63" value="GitHub Actions&lt;div&gt;Runner&lt;/div&gt;" style="verticalLabelPosition=bottom;verticalAlign=top;html=1;shape=mxgraph.flowchart.or;" vertex="1" parent="1">
          <mxGeometry x="172" y="770" width="70" height="70" as="geometry" />
        </mxCell>
      </root>
    </mxGraphModel>
  </diagram>
</mxfile>
